<svg xmlns="http://www.w3.org/2000/svg" width="1920" height="1080"><path d="M340,1226L-115,1229L711,1237Z" fill="#749b66" stroke="#749b66" stroke-width="1.51"/><path d="M378,1224L340,1226L711,1237Z" fill="#6a9760" stroke="#6a9760" stroke-width="1.51"/><path d="M868,1237L711,1237L1042,1240Z" fill="#488853" stroke="#488853" stroke-width="1.51"/><path d="M756,-126L968,-122L1174,-140Z" fill="#bbe2a8" stroke="#bbe2a8" stroke-width="1.51"/><path d="M496,-137L756,-126L1174,-140Z" fill="#c9e8af" stroke="#c9e8af" stroke-width="1.51"/><path d="M111,-155L496,-137L1174,-140Z" fill="#dcf0b8" stroke="#dcf0b8" stroke-width="1.51"/><path d="M111,-155L1174,-140L1318,-145Z" fill="#c4e6ae" stroke="#c4e6ae" stroke-width="1.51"/><path d="M1195,1222L1042,1240L1490,1226Z" fill="#227944" stroke="#227944" stroke-width="1.51"/><path d="M111,-155L1318,-145L1911,-145Z" fill="#b0dca3" stroke="#b0dca3" stroke-width="1.51"/><path d="M1318,-145L1622,-141L1911,-145Z" fill="#92bc8b" stroke="#92bc8b" stroke-width="1.51"/><path d="M1622,-141L1818,-120L1911,-145Z" fill="#8bb486" stroke="#8bb486" stroke-width="1.51"/><path d="M1877,1196L1765,1190L1961,1216Z" fill="#005931" stroke="#005931" stroke-width="1.51"/><path d="M1765,1190L1588,1206L1961,1216Z" fill="#035e33" stroke="#035e33" stroke-width="1.51"/><path d="M1588,1206L1490,1226L1961,1216Z" fill="#096134" stroke="#096134" stroke-width="1.51"/><path d="M1490,1226L1042,1240L2038,1230Z" fill="#136737" stroke="#136737" stroke-width="1.51"/><path d="M1961,1216L1490,1226L2038,1230Z" fill="#005931" stroke="#005931" stroke-width="1.51"/><path d="M2036,196L1989,244L2072,359Z" fill="#679860" stroke="#679860" stroke-width="1.51"/><path d="M1989,244L1964,334L2072,359Z" fill="#63975f" stroke="#63975f" stroke-width="1.51"/><path d="M2072,69L2036,196L2072,359Z" fill="#6e9963" stroke="#6e9963" stroke-width="1.51"/><path d="M1916,747L1925,856L2081,733Z" fill="#1e7942" stroke="#1e7942" stroke-width="1.51"/><path d="M1968,1082L2038,1230L2082,1068Z" fill="#005630" stroke="#005630" stroke-width="1.51"/><path d="M2057,946L1987,1018L2082,1068Z" fill="#066034" stroke="#066034" stroke-width="1.51"/><path d="M2064,410L1972,440L2093,539Z" fill="#4c8c55" stroke="#4c8c55" stroke-width="1.51"/><path d="M2025,637L2081,733L2093,539Z" fill="#317f49" stroke="#317f49" stroke-width="1.51"/><path d="M2072,359L2064,410L2093,539Z" fill="#508c56" stroke="#508c56" stroke-width="1.51"/><path d="M2072,69L2072,359L2093,539Z" fill="#60925c" stroke="#60925c" stroke-width="1.51"/><path d="M2073,-48L2072,69L2093,539Z" fill="#709964" stroke="#709964" stroke-width="1.51"/><path d="M2081,733L1925,856L2098,875Z" fill="#19703d" stroke="#19703d" stroke-width="1.51"/><path d="M1925,856L2057,946L2098,875Z" fill="#136938" stroke="#136938" stroke-width="1.51"/><path d="M2057,946L2082,1068L2098,875Z" fill="#0b6135" stroke="#0b6135" stroke-width="1.51"/><path d="M2093,539L2081,733L2098,875Z" fill="#227843" stroke="#227843" stroke-width="1.51"/><path d="M1968,1082L1961,1216L2038,1230Z" fill="#00542f" stroke="#00542f" stroke-width="1.51"/><path d="M1951,132L2036,196L2072,69Z" fill="#769e68" stroke="#769e68" stroke-width="1.51"/><path d="M1909,21L2072,69L2073,-48Z" fill="#80a26f" stroke="#80a26f" stroke-width="1.51"/><path d="M1939,572L2025,637L2093,539Z" fill="#3a864f" stroke="#3a864f" stroke-width="1.51"/><path d="M1972,440L1939,572L2093,539Z" fill="#458b53" stroke="#458b53" stroke-width="1.51"/><path d="M2025,637L1916,747L2081,733Z" fill="#267e46" stroke="#267e46" stroke-width="1.51"/><path d="M1987,1018L1968,1082L2082,1068Z" fill="#025e33" stroke="#025e33" stroke-width="1.51"/><path d="M1909,21L1951,132L2072,69Z" fill="#7ca36d" stroke="#7ca36d" stroke-width="1.51"/><path d="M1964,334L2064,410L2072,359Z" fill="#5b935b" stroke="#5b935b" stroke-width="1.51"/><path d="M1911,-145L1878,-20L2073,-48Z" fill="#84a87a" stroke="#84a87a" stroke-width="1.51"/><path d="M1878,-20L1909,21L2073,-48Z" fill="#83a774" stroke="#83a774" stroke-width="1.51"/><path d="M2056,-134L1911,-145L2073,-48Z" fill="#83a47c" stroke="#83a47c" stroke-width="1.51"/><path d="M1939,643L1916,747L2025,637Z" fill="#2c8349" stroke="#2c8349" stroke-width="1.51"/><path d="M1964,334L1972,440L2064,410Z" fill="#58935a" stroke="#58935a" stroke-width="1.51"/><path d="M1925,856L1987,1018L2057,946Z" fill="#0e6837" stroke="#0e6837" stroke-width="1.51"/><path d="M1951,132L1989,244L2036,196Z" fill="#729f66" stroke="#729f66" stroke-width="1.51"/><path d="M1925,856L1877,885L1987,1018Z" fill="#116d39" stroke="#116d39" stroke-width="1.51"/><path d="M1939,572L1939,643L2025,637Z" fill="#36874d" stroke="#36874d" stroke-width="1.51"/><path d="M1877,1196L1961,1216L1968,1082Z" fill="#005831" stroke="#005831" stroke-width="1.51"/><path d="M1838,453L1939,572L1972,440Z" fill="#4b9358" stroke="#4b9358" stroke-width="1.51"/><path d="M1877,885L1849,939L1987,1018Z" fill="#0e6d39" stroke="#0e6d39" stroke-width="1.51"/><path d="M1951,132L1799,231L1989,244Z" fill="#73a367" stroke="#73a367" stroke-width="1.51"/><path d="M1825,329L1964,334L1989,244Z" fill="#669d61" stroke="#669d61" stroke-width="1.51"/><path d="M1799,231L1825,329L1989,244Z" fill="#6ca365" stroke="#6ca365" stroke-width="1.51"/><path d="M1851,1084L1968,1082L1987,1018Z" fill="#016235" stroke="#016235" stroke-width="1.51"/><path d="M1849,939L1851,1084L1987,1018Z" fill="#076837" stroke="#076837" stroke-width="1.51"/><path d="M1838,453L1825,534L1939,572Z" fill="#479557" stroke="#479557" stroke-width="1.51"/><path d="M1825,329L1838,453L1964,334Z" fill="#5e9d5f" stroke="#5e9d5f" stroke-width="1.51"/><path d="M1851,1084L1877,1196L1968,1082Z" fill="#005f34" stroke="#005f34" stroke-width="1.51"/><path d="M1964,334L1838,453L1972,440Z" fill="#57975b" stroke="#57975b" stroke-width="1.51"/><path d="M1916,747L1872,757L1925,856Z" fill="#1e7c43" stroke="#1e7c43" stroke-width="1.51"/><path d="M1872,757L1916,747L1939,643Z" fill="#258347" stroke="#258347" stroke-width="1.51"/><path d="M1909,21L1799,83L1951,132Z" fill="#7eaa6f" stroke="#7eaa6f" stroke-width="1.51"/><path d="M1799,83L1799,231L1951,132Z" fill="#7aaa6c" stroke="#7aaa6c" stroke-width="1.51"/><path d="M1818,-120L1878,-20L1911,-145Z" fill="#88ae7f" stroke="#88ae7f" stroke-width="1.51"/><path d="M1811,642L1872,757L1939,643Z" fill="#2c884b" stroke="#2c884b" stroke-width="1.51"/><path d="M1811,642L1939,643L1939,572Z" fill="#378b50" stroke="#378b50" stroke-width="1.51"/><path d="M1825,534L1811,642L1939,572Z" fill="#3d9153" stroke="#3d9153" stroke-width="1.51"/><path d="M1872,757L1877,885L1925,856Z" fill="#1a7940" stroke="#1a7940" stroke-width="1.51"/><path d="M1878,-20L1799,83L1909,21Z" fill="#84ad72" stroke="#84ad72" stroke-width="1.51"/><path d="M1849,939L1729,1009L1851,1084Z" fill="#096e39" stroke="#096e39" stroke-width="1.51"/><path d="M1811,642L1729,749L1872,757Z" fill="#278a4a" stroke="#278a4a" stroke-width="1.51"/><path d="M1729,749L1730,864L1872,757Z" fill="#218445" stroke="#218445" stroke-width="1.51"/><path d="M1851,1084L1765,1190L1877,1196Z" fill="#005f34" stroke="#005f34" stroke-width="1.51"/><path d="M1872,757L1730,864L1877,885Z" fill="#1b7c41" stroke="#1b7c41" stroke-width="1.51"/><path d="M1748,-16L1799,83L1878,-20Z" fill="#86b175" stroke="#86b175" stroke-width="1.51"/><path d="M1818,-120L1770,-94L1878,-20Z" fill="#89b17e" stroke="#89b17e" stroke-width="1.51"/><path d="M1770,-94L1748,-16L1878,-20Z" fill="#89b27b" stroke="#89b27b" stroke-width="1.51"/><path d="M1730,864L1849,939L1877,885Z" fill="#15763d" stroke="#15763d" stroke-width="1.51"/><path d="M1748,-16L1756,59L1799,83Z" fill="#86b274" stroke="#86b274" stroke-width="1.51"/><path d="M1799,83L1743,203L1799,231Z" fill="#7bad6c" stroke="#7bad6c" stroke-width="1.51"/><path d="M1622,-141L1770,-94L1818,-120Z" fill="#8db685" stroke="#8db685" stroke-width="1.51"/><path d="M1762,523L1825,534L1838,453Z" fill="#4b9959" stroke="#4b9959" stroke-width="1.51"/><path d="M1825,329L1720,419L1838,453Z" fill="#5da05f" stroke="#5da05f" stroke-width="1.51"/><path d="M1703,1073L1765,1190L1851,1084Z" fill="#046636" stroke="#046636" stroke-width="1.51"/><path d="M1729,1009L1703,1073L1851,1084Z" fill="#076c39" stroke="#076c39" stroke-width="1.51"/><path d="M1730,864L1729,1009L1849,939Z" fill="#14753c" stroke="#14753c" stroke-width="1.51"/><path d="M1762,523L1811,642L1825,534Z" fill="#429556" stroke="#429556" stroke-width="1.51"/><path d="M1799,231L1733,289L1825,329Z" fill="#6da766" stroke="#6da766" stroke-width="1.51"/><path d="M1720,419L1762,523L1838,453Z" fill="#539d5c" stroke="#539d5c" stroke-width="1.51"/><path d="M1762,523L1718,653L1811,642Z" fill="#3d9454" stroke="#3d9454" stroke-width="1.51"/><path d="M1718,653L1729,749L1811,642Z" fill="#308f4e" stroke="#308f4e" stroke-width="1.51"/><path d="M1733,289L1720,419L1825,329Z" fill="#66a563" stroke="#66a563" stroke-width="1.51"/><path d="M1318,-145L1417,-112L1622,-141Z" fill="#9ac690" stroke="#9ac690" stroke-width="1.51"/><path d="M1756,59L1743,203L1799,83Z" fill="#80b06f" stroke="#80b06f" stroke-width="1.51"/><path d="M1743,203L1733,289L1799,231Z" fill="#73ab69" stroke="#73ab69" stroke-width="1.51"/><path d="M1386,1202L1195,1222L1490,1226Z" fill="#1c733f" stroke="#1c733f" stroke-width="1.51"/><path d="M1601,58L1586,170L1743,203Z" fill="#83b571" stroke="#83b571" stroke-width="1.51"/><path d="M1601,58L1743,203L1756,59Z" fill="#83b372" stroke="#83b372" stroke-width="1.51"/><path d="M1605,561L1718,653L1762,523Z" fill="#449a57" stroke="#449a57" stroke-width="1.51"/><path d="M1622,-141L1748,-16L1770,-94Z" fill="#8db782" stroke="#8db782" stroke-width="1.51"/><path d="M1616,996L1729,1009L1730,864Z" fill="#17783e" stroke="#17783e" stroke-width="1.51"/><path d="M1720,419L1625,425L1762,523Z" fill="#58a25e" stroke="#58a25e" stroke-width="1.51"/><path d="M1703,1073L1588,1206L1765,1190Z" fill="#0a6737" stroke="#0a6737" stroke-width="1.51"/><path d="M1628,861L1616,996L1730,864Z" fill="#1d7d40" stroke="#1d7d40" stroke-width="1.51"/><path d="M1625,425L1605,561L1762,523Z" fill="#51a15d" stroke="#51a15d" stroke-width="1.51"/><path d="M1729,749L1628,861L1730,864Z" fill="#228444" stroke="#228444" stroke-width="1.51"/><path d="M1748,-16L1601,58L1756,59Z" fill="#89b676" stroke="#89b676" stroke-width="1.51"/><path d="M1718,653L1652,678L1729,749Z" fill="#30914e" stroke="#30914e" stroke-width="1.51"/><path d="M1625,425L1720,419L1733,289Z" fill="#64a763" stroke="#64a763" stroke-width="1.51"/><path d="M1594,289L1625,425L1733,289Z" fill="#6cac66" stroke="#6cac66" stroke-width="1.51"/><path d="M1594,289L1733,289L1743,203Z" fill="#73ad6a" stroke="#73ad6a" stroke-width="1.51"/><path d="M1622,-141L1587,9L1748,-16Z" fill="#8fba7f" stroke="#8fba7f" stroke-width="1.51"/><path d="M1587,9L1601,58L1748,-16Z" fill="#8db978" stroke="#8db978" stroke-width="1.51"/><path d="M1586,170L1594,289L1743,203Z" fill="#7bb26d" stroke="#7bb26d" stroke-width="1.51"/><path d="M1586,1081L1588,1206L1703,1073Z" fill="#0e6d39" stroke="#0e6d39" stroke-width="1.51"/><path d="M1605,561L1652,678L1718,653Z" fill="#3d9754" stroke="#3d9754" stroke-width="1.51"/><path d="M1599,725L1628,861L1729,749Z" fill="#288b49" stroke="#288b49" stroke-width="1.51"/><path d="M1616,996L1703,1073L1729,1009Z" fill="#10733b" stroke="#10733b" stroke-width="1.51"/><path d="M1652,678L1599,725L1729,749Z" fill="#2e914d" stroke="#2e914d" stroke-width="1.51"/><path d="M970,1234L868,1237L1042,1240Z" fill="#3f8450" stroke="#3f8450" stroke-width="1.51"/><path d="M1616,996L1586,1081L1703,1073Z" fill="#11733c" stroke="#11733c" stroke-width="1.51"/><path d="M1551,446L1531,512L1605,561Z" fill="#55a55f" stroke="#55a55f" stroke-width="1.51"/><path d="M1417,-112L1537,-95L1622,-141Z" fill="#96c28b" stroke="#96c28b" stroke-width="1.51"/><path d="M1537,-95L1587,9L1622,-141Z" fill="#93be84" stroke="#93be84" stroke-width="1.51"/><path d="M1594,289L1537,296L1625,425Z" fill="#6eaf68" stroke="#6eaf68" stroke-width="1.51"/><path d="M1551,446L1605,561L1625,425Z" fill="#58a560" stroke="#58a560" stroke-width="1.51"/><path d="M1526,988L1616,996L1628,861Z" fill="#1d7d41" stroke="#1d7d41" stroke-width="1.51"/><path d="M1605,561L1531,666L1652,678Z" fill="#3e9b55" stroke="#3e9b55" stroke-width="1.51"/><path d="M1531,666L1599,725L1652,678Z" fill="#359651" stroke="#359651" stroke-width="1.51"/><path d="M604,1222L378,1224L711,1237Z" fill="#63945e" stroke="#63945e" stroke-width="1.51"/><path d="M1471,774L1498,866L1599,725Z" fill="#2e914b" stroke="#2e914b" stroke-width="1.51"/><path d="M1531,81L1586,170L1601,58Z" fill="#89ba75" stroke="#89ba75" stroke-width="1.51"/><path d="M1537,296L1551,446L1625,425Z" fill="#67ac65" stroke="#67ac65" stroke-width="1.51"/><path d="M1599,725L1498,866L1628,861Z" fill="#288a47" stroke="#288a47" stroke-width="1.51"/><path d="M1498,866L1526,988L1628,861Z" fill="#228342" stroke="#228342" stroke-width="1.51"/><path d="M1586,170L1496,210L1594,289Z" fill="#7db66e" stroke="#7db66e" stroke-width="1.51"/><path d="M1526,988L1586,1081L1616,996Z" fill="#17783e" stroke="#17783e" stroke-width="1.51"/><path d="M1496,210L1537,296L1594,289Z" fill="#79b56d" stroke="#79b56d" stroke-width="1.51"/><path d="M1526,988L1513,1060L1586,1081Z" fill="#17783e" stroke="#17783e" stroke-width="1.51"/><path d="M1537,-95L1528,11L1587,9Z" fill="#92bf7f" stroke="#92bf7f" stroke-width="1.51"/><path d="M1586,1081L1513,1060L1588,1206Z" fill="#12713b" stroke="#12713b" stroke-width="1.51"/><path d="M1513,1060L1490,1226L1588,1206Z" fill="#136e3a" stroke="#136e3a" stroke-width="1.51"/><path d="M1531,512L1531,666L1605,561Z" fill="#49a15a" stroke="#49a15a" stroke-width="1.51"/><path d="M1587,9L1528,11L1601,58Z" fill="#8fbd7a" stroke="#8fbd7a" stroke-width="1.51"/><path d="M1528,11L1531,81L1601,58Z" fill="#8ebd78" stroke="#8ebd78" stroke-width="1.51"/><path d="M1531,666L1471,774L1599,725Z" fill="#329750" stroke="#329750" stroke-width="1.51"/><path d="M1531,81L1496,210L1586,170Z" fill="#86ba73" stroke="#86ba73" stroke-width="1.51"/><path d="M1386,1202L1490,1226L1513,1060Z" fill="#17723d" stroke="#17723d" stroke-width="1.51"/><path d="M1385,611L1531,666L1531,512Z" fill="#4aa45c" stroke="#4aa45c" stroke-width="1.51"/><path d="M1417,-112L1528,11L1537,-95Z" fill="#96c386" stroke="#96c386" stroke-width="1.51"/><path d="M1380,298L1423,451L1537,296Z" fill="#73b76d" stroke="#73b76d" stroke-width="1.51"/><path d="M1537,296L1423,451L1551,446Z" fill="#69af67" stroke="#69af67" stroke-width="1.51"/><path d="M1423,451L1531,512L1551,446Z" fill="#5dac63" stroke="#5dac63" stroke-width="1.51"/><path d="M1410,1050L1386,1202L1513,1060Z" fill="#1a7940" stroke="#1a7940" stroke-width="1.51"/><path d="M1498,866L1415,978L1526,988Z" fill="#238444" stroke="#238444" stroke-width="1.51"/><path d="M1417,-112L1377,-18L1528,11Z" fill="#98c786" stroke="#98c786" stroke-width="1.51"/><path d="M1368,99L1496,210L1531,81Z" fill="#8cc177" stroke="#8cc177" stroke-width="1.51"/><path d="M1407,499L1385,611L1531,512Z" fill="#55ab62" stroke="#55ab62" stroke-width="1.51"/><path d="M1496,210L1380,298L1537,296Z" fill="#7cba70" stroke="#7cba70" stroke-width="1.51"/><path d="M1415,978L1513,1060L1526,988Z" fill="#1d7e42" stroke="#1d7e42" stroke-width="1.51"/><path d="M1377,-18L1368,99L1528,11Z" fill="#96c680" stroke="#96c680" stroke-width="1.51"/><path d="M1440,776L1471,774L1531,666Z" fill="#349951" stroke="#349951" stroke-width="1.51"/><path d="M1385,611L1440,776L1531,666Z" fill="#3d9f56" stroke="#3d9f56" stroke-width="1.51"/><path d="M1528,11L1368,99L1531,81Z" fill="#91c27b" stroke="#91c27b" stroke-width="1.51"/><path d="M1423,451L1407,499L1531,512Z" fill="#5dae64" stroke="#5dae64" stroke-width="1.51"/><path d="M1415,978L1410,1050L1513,1060Z" fill="#1e7f42" stroke="#1e7f42" stroke-width="1.51"/><path d="M1471,774L1414,833L1498,866Z" fill="#2e914b" stroke="#2e914b" stroke-width="1.51"/><path d="M1440,776L1414,833L1471,774Z" fill="#31954e" stroke="#31954e" stroke-width="1.51"/><path d="M1360,217L1380,298L1496,210Z" fill="#82bf74" stroke="#82bf74" stroke-width="1.51"/><path d="M1368,99L1360,217L1496,210Z" fill="#8ac278" stroke="#8ac278" stroke-width="1.51"/><path d="M1414,833L1415,978L1498,866Z" fill="#298b47" stroke="#298b47" stroke-width="1.51"/><path d="M1312,1178L1195,1222L1386,1202Z" fill="#207842" stroke="#207842" stroke-width="1.51"/><path d="M1310,1069L1312,1178L1386,1202Z" fill="#1f7b43" stroke="#1f7b43" stroke-width="1.51"/><path d="M1310,1069L1386,1202L1410,1050Z" fill="#1e7e43" stroke="#1e7e43" stroke-width="1.51"/><path d="M1414,833L1282,953L1415,978Z" fill="#2a8d49" stroke="#2a8d49" stroke-width="1.51"/><path d="M1380,298L1329,301L1423,451Z" fill="#76bb6f" stroke="#76bb6f" stroke-width="1.51"/><path d="M1385,611L1286,640L1440,776Z" fill="#43a55b" stroke="#43a55b" stroke-width="1.51"/><path d="M1286,640L1273,791L1440,776Z" fill="#3ba357" stroke="#3ba357" stroke-width="1.51"/><path d="M1273,791L1414,833L1440,776Z" fill="#349951" stroke="#349951" stroke-width="1.51"/><path d="M1316,170L1360,217L1368,99Z" fill="#8ec77c" stroke="#8ec77c" stroke-width="1.51"/><path d="M1328,507L1385,611L1407,499Z" fill="#58b065" stroke="#58b065" stroke-width="1.51"/><path d="M1273,791L1286,830L1414,833Z" fill="#359b52" stroke="#359b52" stroke-width="1.51"/><path d="M1286,830L1282,953L1414,833Z" fill="#30944e" stroke="#30944e" stroke-width="1.51"/><path d="M1329,301L1258,458L1423,451Z" fill="#70bb6f" stroke="#70bb6f" stroke-width="1.51"/><path d="M1258,458L1328,507L1423,451Z" fill="#65b76b" stroke="#65b76b" stroke-width="1.51"/><path d="M1328,507L1407,499L1423,451Z" fill="#61b267" stroke="#61b267" stroke-width="1.51"/><path d="M1310,1069L1410,1050L1415,978Z" fill="#218445" stroke="#218445" stroke-width="1.51"/><path d="M1282,953L1310,1069L1415,978Z" fill="#268948" stroke="#268948" stroke-width="1.51"/><path d="M1318,-145L1377,-18L1417,-112Z" fill="#9dcc8f" stroke="#9dcc8f" stroke-width="1.51"/><path d="M1249,-23L1368,99L1377,-18Z" fill="#9cce85" stroke="#9cce85" stroke-width="1.51"/><path d="M1318,-145L1249,-23L1377,-18Z" fill="#9fd08e" stroke="#9fd08e" stroke-width="1.51"/><path d="M1360,217L1329,301L1380,298Z" fill="#81c175" stroke="#81c175" stroke-width="1.51"/><path d="M1328,507L1286,640L1385,611Z" fill="#53af63" stroke="#53af63" stroke-width="1.51"/><path d="M1249,-23L1286,141L1368,99Z" fill="#99ce83" stroke="#99ce83" stroke-width="1.51"/><path d="M1286,141L1316,170L1368,99Z" fill="#92ca7e" stroke="#92ca7e" stroke-width="1.51"/><path d="M1216,686L1273,791L1286,640Z" fill="#43ab5d" stroke="#43ab5d" stroke-width="1.51"/><path d="M1316,170L1329,301L1360,217Z" fill="#88c578" stroke="#88c578" stroke-width="1.51"/><path d="M1173,360L1217,451L1258,458Z" fill="#74c273" stroke="#74c273" stroke-width="1.51"/><path d="M1310,1069L1173,1114L1312,1178Z" fill="#238348" stroke="#238348" stroke-width="1.51"/><path d="M1175,522L1286,640L1328,507Z" fill="#5bb669" stroke="#5bb669" stroke-width="1.51"/><path d="M1258,458L1175,522L1328,507Z" fill="#66bb6d" stroke="#66bb6d" stroke-width="1.51"/><path d="M1173,360L1258,458L1329,301Z" fill="#79c375" stroke="#79c375" stroke-width="1.51"/><path d="M1316,170L1190,177L1329,301Z" fill="#8cca7c" stroke="#8cca7c" stroke-width="1.51"/><path d="M1190,177L1173,360L1329,301Z" fill="#87ca7b" stroke="#87ca7b" stroke-width="1.51"/><path d="M1174,-140L1249,-23L1318,-145Z" fill="#a4d596" stroke="#a4d596" stroke-width="1.51"/><path d="M1152,960L1173,1114L1282,953Z" fill="#30904e" stroke="#30904e" stroke-width="1.51"/><path d="M1249,-23L1142,98L1286,141Z" fill="#9ed287" stroke="#9ed287" stroke-width="1.51"/><path d="M1282,953L1173,1114L1310,1069Z" fill="#278b4a" stroke="#278b4a" stroke-width="1.51"/><path d="M1286,141L1190,177L1316,170Z" fill="#93cd80" stroke="#93cd80" stroke-width="1.51"/><path d="M1173,1114L1195,1222L1312,1178Z" fill="#268047" stroke="#268047" stroke-width="1.51"/><path d="M1157,853L1282,953L1286,830Z" fill="#359a52" stroke="#359a52" stroke-width="1.51"/><path d="M1110,285L1173,360L1190,177Z" fill="#8ecd7f" stroke="#8ecd7f" stroke-width="1.51"/><path d="M1174,-140L1167,-47L1249,-23Z" fill="#a8d795" stroke="#a8d795" stroke-width="1.51"/><path d="M1157,853L1152,960L1282,953Z" fill="#369851" stroke="#369851" stroke-width="1.51"/><path d="M1175,522L1216,686L1286,640Z" fill="#54b466" stroke="#54b466" stroke-width="1.51"/><path d="M1273,791L1167,794L1286,830Z" fill="#3ba257" stroke="#3ba257" stroke-width="1.51"/><path d="M1167,794L1157,853L1286,830Z" fill="#3da157" stroke="#3da157" stroke-width="1.51"/><path d="M1142,98L1190,177L1286,141Z" fill="#99d184" stroke="#99d184" stroke-width="1.51"/><path d="M756,-126L813,-114L968,-122Z" fill="#c6e7ac" stroke="#c6e7ac" stroke-width="1.51"/><path d="M1217,451L1175,522L1258,458Z" fill="#6bbe70" stroke="#6bbe70" stroke-width="1.51"/><path d="M1216,686L1167,794L1273,791Z" fill="#42a85b" stroke="#42a85b" stroke-width="1.51"/><path d="M1167,-47L1142,98L1249,-23Z" fill="#a6d78d" stroke="#a6d78d" stroke-width="1.51"/><path d="M968,-122L1091,-96L1174,-140Z" fill="#b2dda1" stroke="#b2dda1" stroke-width="1.51"/><path d="M1175,522L1082,543L1216,686Z" fill="#60ba6c" stroke="#60ba6c" stroke-width="1.51"/><path d="M1082,543L1044,676L1216,686Z" fill="#5cb86a" stroke="#5cb86a" stroke-width="1.51"/><path d="M1092,757L1167,794L1216,686Z" fill="#49ac5f" stroke="#49ac5f" stroke-width="1.51"/><path d="M1104,423L1175,522L1217,451Z" fill="#72c273" stroke="#72c273" stroke-width="1.51"/><path d="M1173,360L1104,423L1217,451Z" fill="#7bc576" stroke="#7bc576" stroke-width="1.51"/><path d="M1044,676L1092,757L1216,686Z" fill="#51b264" stroke="#51b264" stroke-width="1.51"/><path d="M1101,-46L1142,98L1167,-47Z" fill="#aad990" stroke="#aad990" stroke-width="1.51"/><path d="M1152,960L1046,1077L1173,1114Z" fill="#369150" stroke="#369150" stroke-width="1.51"/><path d="M1091,-96L1167,-47L1174,-140Z" fill="#adda9b" stroke="#adda9b" stroke-width="1.51"/><path d="M1069,170L1110,285L1190,177Z" fill="#99d284" stroke="#99d284" stroke-width="1.51"/><path d="M1173,1114L1042,1240L1195,1222Z" fill="#30814a" stroke="#30814a" stroke-width="1.51"/><path d="M1083,954L1046,1077L1152,960Z" fill="#3c9653" stroke="#3c9653" stroke-width="1.51"/><path d="M1110,857L1152,960L1157,853Z" fill="#3f9d55" stroke="#3f9d55" stroke-width="1.51"/><path d="M1142,98L1069,170L1190,177Z" fill="#9fd487" stroke="#9fd487" stroke-width="1.51"/><path d="M1101,-46L1067,87L1142,98Z" fill="#aad98f" stroke="#aad98f" stroke-width="1.51"/><path d="M1110,857L1083,954L1152,960Z" fill="#3f9b55" stroke="#3f9b55" stroke-width="1.51"/><path d="M1091,-96L1101,-46L1167,-47Z" fill="#adda98" stroke="#adda98" stroke-width="1.51"/><path d="M1046,1077L1042,1240L1173,1114Z" fill="#36894f" stroke="#36894f" stroke-width="1.51"/><path d="M1104,423L1082,543L1175,522Z" fill="#71c273" stroke="#71c273" stroke-width="1.51"/><path d="M1110,857L1157,853L1167,794Z" fill="#43a359" stroke="#43a359" stroke-width="1.51"/><path d="M1110,285L1104,423L1173,360Z" fill="#85ca7b" stroke="#85ca7b" stroke-width="1.51"/><path d="M1092,757L1110,857L1167,794Z" fill="#48a75d" stroke="#48a75d" stroke-width="1.51"/><path d="M1067,87L1069,170L1142,98Z" fill="#a4d78b" stroke="#a4d78b" stroke-width="1.51"/><path d="M111,-155L264,-125L496,-137Z" fill="#f1f9c3" stroke="#f1f9c3" stroke-width="1.51"/><path d="M927,-51L929,63L1067,87Z" fill="#b5e096" stroke="#b5e096" stroke-width="1.51"/><path d="M972,640L1044,676L1082,543Z" fill="#66bc6f" stroke="#66bc6f" stroke-width="1.51"/><path d="M927,-51L1067,87L1101,-46Z" fill="#b3de96" stroke="#b3de96" stroke-width="1.51"/><path d="M967,465L1082,543L1104,423Z" fill="#7ac678" stroke="#7ac678" stroke-width="1.51"/><path d="M942,304L967,465L1104,423Z" fill="#8acd7f" stroke="#8acd7f" stroke-width="1.51"/><path d="M1092,757L1001,883L1110,857Z" fill="#4ba75d" stroke="#4ba75d" stroke-width="1.51"/><path d="M1001,883L1083,954L1110,857Z" fill="#46a059" stroke="#46a059" stroke-width="1.51"/><path d="M942,304L1104,423L1110,285Z" fill="#8fcf80" stroke="#8fcf80" stroke-width="1.51"/><path d="M1069,170L942,304L1110,285Z" fill="#9ad486" stroke="#9ad486" stroke-width="1.51"/><path d="M952,979L1046,1077L1083,954Z" fill="#439956" stroke="#439956" stroke-width="1.51"/><path d="M1091,-96L968,-122L1101,-46Z" fill="#b3de9f" stroke="#b3de9f" stroke-width="1.51"/><path d="M968,-122L927,-51L1101,-46Z" fill="#b8e0a0" stroke="#b8e0a0" stroke-width="1.51"/><path d="M970,1234L1042,1240L1046,1077Z" fill="#3c8850" stroke="#3c8850" stroke-width="1.51"/><path d="M934,185L942,304L1069,170Z" fill="#a3d88b" stroke="#a3d88b" stroke-width="1.51"/><path d="M1044,676L931,735L1092,757Z" fill="#58b567" stroke="#58b567" stroke-width="1.51"/><path d="M931,735L1001,883L1092,757Z" fill="#54ae63" stroke="#54ae63" stroke-width="1.51"/><path d="M931,515L972,640L1082,543Z" fill="#71c275" stroke="#71c275" stroke-width="1.51"/><path d="M1001,883L952,979L1083,954Z" fill="#499e59" stroke="#499e59" stroke-width="1.51"/><path d="M967,465L931,515L1082,543Z" fill="#7ac779" stroke="#7ac779" stroke-width="1.51"/><path d="M264,-125L411,-124L496,-137Z" fill="#ebf7be" stroke="#ebf7be" stroke-width="1.51"/><path d="M943,1067L970,1234L1046,1077Z" fill="#408f53" stroke="#408f53" stroke-width="1.51"/><path d="M929,63L934,185L1067,87Z" fill="#aedd91" stroke="#aedd91" stroke-width="1.51"/><path d="M1067,87L934,185L1069,170Z" fill="#a8d98d" stroke="#a8d98d" stroke-width="1.51"/><path d="M972,640L931,735L1044,676Z" fill="#61ba6c" stroke="#61ba6c" stroke-width="1.51"/><path d="M952,979L943,1067L1046,1077Z" fill="#459757" stroke="#459757" stroke-width="1.51"/><path d="M942,304L862,421L967,465Z" fill="#91d183" stroke="#91d183" stroke-width="1.51"/><path d="M943,1067L868,1237L970,1234Z" fill="#448c53" stroke="#448c53" stroke-width="1.51"/><path d="M829,906L952,979L1001,883Z" fill="#52a45d" stroke="#52a45d" stroke-width="1.51"/><path d="M931,735L829,906L1001,883Z" fill="#59ac63" stroke="#59ac63" stroke-width="1.51"/><path d="M880,731L829,906L931,735Z" fill="#60b368" stroke="#60b368" stroke-width="1.51"/><path d="M843,578L884,648L931,515Z" fill="#7ac678" stroke="#7ac678" stroke-width="1.51"/><path d="M929,63L858,126L934,185Z" fill="#b3df93" stroke="#b3df93" stroke-width="1.51"/><path d="M835,347L862,421L942,304Z" fill="#9bd586" stroke="#9bd586" stroke-width="1.51"/><path d="M822,1058L868,1237L943,1067Z" fill="#4c9458" stroke="#4c9458" stroke-width="1.51"/><path d="M931,515L884,648L972,640Z" fill="#73c375" stroke="#73c375" stroke-width="1.51"/><path d="M884,648L931,735L972,640Z" fill="#68bd6f" stroke="#68bd6f" stroke-width="1.51"/><path d="M934,185L874,176L942,304Z" fill="#a8db8d" stroke="#a8db8d" stroke-width="1.51"/><path d="M860,1005L943,1067L952,979Z" fill="#4d9c5b" stroke="#4d9c5b" stroke-width="1.51"/><path d="M813,-114L927,-51L968,-122Z" fill="#c0e5a7" stroke="#c0e5a7" stroke-width="1.51"/><path d="M862,421L931,515L967,465Z" fill="#87cc7f" stroke="#87cc7f" stroke-width="1.51"/><path d="M774,830L829,906L880,731Z" fill="#63b268" stroke="#63b268" stroke-width="1.51"/><path d="M927,-51L840,-15L929,63Z" fill="#bee49b" stroke="#bee49b" stroke-width="1.51"/><path d="M884,648L880,731L931,735Z" fill="#67bc6e" stroke="#67bc6e" stroke-width="1.51"/><path d="M858,126L874,176L934,185Z" fill="#b2df91" stroke="#b2df91" stroke-width="1.51"/><path d="M829,906L860,1005L952,979Z" fill="#54a25e" stroke="#54a25e" stroke-width="1.51"/><path d="M874,176L835,347L942,304Z" fill="#a4d98b" stroke="#a4d98b" stroke-width="1.51"/><path d="M860,1005L822,1058L943,1067Z" fill="#509c5b" stroke="#509c5b" stroke-width="1.51"/><path d="M764,234L835,347L874,176Z" fill="#addd8f" stroke="#addd8f" stroke-width="1.51"/><path d="M813,-114L840,-15L927,-51Z" fill="#c3e6a4" stroke="#c3e6a4" stroke-width="1.51"/><path d="M862,421L843,578L931,515Z" fill="#85cc7e" stroke="#85cc7e" stroke-width="1.51"/><path d="M840,-15L858,126L929,63Z" fill="#bce398" stroke="#bce398" stroke-width="1.51"/><path d="M764,234L760,299L835,347Z" fill="#abdc8e" stroke="#abdc8e" stroke-width="1.51"/><path d="M840,-15L746,20L858,126Z" fill="#c2e69b" stroke="#c2e69b" stroke-width="1.51"/><path d="M778,461L843,578L862,421Z" fill="#8dcf81" stroke="#8dcf81" stroke-width="1.51"/><path d="M822,1058L709,1115L868,1237Z" fill="#53965a" stroke="#53965a" stroke-width="1.51"/><path d="M709,1115L711,1237L868,1237Z" fill="#549059" stroke="#549059" stroke-width="1.51"/><path d="M740,753L774,830L880,731Z" fill="#6ab96d" stroke="#6ab96d" stroke-width="1.51"/><path d="M759,608L740,753L880,731Z" fill="#72c172" stroke="#72c172" stroke-width="1.51"/><path d="M759,608L880,731L884,648Z" fill="#72c274" stroke="#72c274" stroke-width="1.51"/><path d="M843,578L759,608L884,648Z" fill="#7bc678" stroke="#7bc678" stroke-width="1.51"/><path d="M829,906L770,971L860,1005Z" fill="#5aa560" stroke="#5aa560" stroke-width="1.51"/><path d="M858,126L764,234L874,176Z" fill="#b5e092" stroke="#b5e092" stroke-width="1.51"/><path d="M702,126L764,234L858,126Z" fill="#bbe396" stroke="#bbe396" stroke-width="1.51"/><path d="M746,20L702,126L858,126Z" fill="#c2e69a" stroke="#c2e69a" stroke-width="1.51"/><path d="M835,347L778,461L862,421Z" fill="#98d485" stroke="#98d485" stroke-width="1.51"/><path d="M770,971L822,1058L860,1005Z" fill="#57a05e" stroke="#57a05e" stroke-width="1.51"/><path d="M496,-137L644,-90L756,-126Z" fill="#d8efb4" stroke="#d8efb4" stroke-width="1.51"/><path d="M778,461L727,577L843,578Z" fill="#89cd7f" stroke="#89cd7f" stroke-width="1.51"/><path d="M756,-126L746,20L813,-114Z" fill="#cbe9a9" stroke="#cbe9a9" stroke-width="1.51"/><path d="M813,-114L746,20L840,-15Z" fill="#c8e8a4" stroke="#c8e8a4" stroke-width="1.51"/><path d="M727,577L759,608L843,578Z" fill="#83ca7b" stroke="#83ca7b" stroke-width="1.51"/><path d="M184,1194L-115,1229L340,1226Z" fill="#7e9f6d" stroke="#7e9f6d" stroke-width="1.51"/><path d="M760,299L778,461L835,347Z" fill="#a2d889" stroke="#a2d889" stroke-width="1.51"/><path d="M774,830L770,971L829,906Z" fill="#61aa63" stroke="#61aa63" stroke-width="1.51"/><path d="M770,971L709,1115L822,1058Z" fill="#5a9f5f" stroke="#5a9f5f" stroke-width="1.51"/><path d="M760,299L636,408L778,461Z" fill="#a4d98b" stroke="#a4d98b" stroke-width="1.51"/><path d="M664,76L702,126L746,20Z" fill="#c9e99e" stroke="#c9e99e" stroke-width="1.51"/><path d="M644,-90L746,20L756,-126Z" fill="#d0ecaa" stroke="#d0ecaa" stroke-width="1.51"/><path d="M652,691L740,753L759,608Z" fill="#7bc576" stroke="#7bc576" stroke-width="1.51"/><path d="M616,345L636,408L760,299Z" fill="#afde8e" stroke="#afde8e" stroke-width="1.51"/><path d="M602,954L709,1115L770,971Z" fill="#63a562" stroke="#63a562" stroke-width="1.51"/><path d="M602,954L770,971L774,830Z" fill="#67ad65" stroke="#67ad65" stroke-width="1.51"/><path d="M593,831L602,954L774,830Z" fill="#70b36a" stroke="#70b36a" stroke-width="1.51"/><path d="M636,408L727,577L778,461Z" fill="#98d485" stroke="#98d485" stroke-width="1.51"/><path d="M636,408L590,524L727,577Z" fill="#9ad586" stroke="#9ad586" stroke-width="1.51"/><path d="M702,126L638,187L764,234Z" fill="#c1e697" stroke="#c1e697" stroke-width="1.51"/><path d="M740,753L636,766L774,830Z" fill="#71bb6e" stroke="#71bb6e" stroke-width="1.51"/><path d="M636,766L593,831L774,830Z" fill="#74ba6e" stroke="#74ba6e" stroke-width="1.51"/><path d="M727,577L652,691L759,608Z" fill="#84ca7b" stroke="#84ca7b" stroke-width="1.51"/><path d="M638,187L760,299L764,234Z" fill="#b8e293" stroke="#b8e293" stroke-width="1.51"/><path d="M638,187L616,345L760,299Z" fill="#b8e293" stroke="#b8e293" stroke-width="1.51"/><path d="M602,954L613,1121L709,1115Z" fill="#65a362" stroke="#65a362" stroke-width="1.51"/><path d="M598,17L664,76L746,20Z" fill="#cfeca1" stroke="#cfeca1" stroke-width="1.51"/><path d="M644,-90L598,17L746,20Z" fill="#d3eda6" stroke="#d3eda6" stroke-width="1.51"/><path d="M613,1121L604,1222L709,1115Z" fill="#619a5e" stroke="#619a5e" stroke-width="1.51"/><path d="M709,1115L604,1222L711,1237Z" fill="#5c945c" stroke="#5c945c" stroke-width="1.51"/><path d="M652,691L636,766L740,753Z" fill="#79c274" stroke="#79c274" stroke-width="1.51"/><path d="M590,524L652,691L727,577Z" fill="#8cce7f" stroke="#8cce7f" stroke-width="1.51"/><path d="M590,524L552,658L652,691Z" fill="#8ece7f" stroke="#8ece7f" stroke-width="1.51"/><path d="M664,76L638,187L702,126Z" fill="#c8e99b" stroke="#c8e99b" stroke-width="1.51"/><path d="M500,1190L378,1224L604,1222Z" fill="#699861" stroke="#699861" stroke-width="1.51"/><path d="M602,954L538,1104L613,1121Z" fill="#69a664" stroke="#69a664" stroke-width="1.51"/><path d="M544,285L616,345L638,187Z" fill="#bee495" stroke="#bee495" stroke-width="1.51"/><path d="M482,115L638,187L664,76Z" fill="#ceeb9f" stroke="#ceeb9f" stroke-width="1.51"/><path d="M598,17L482,115L664,76Z" fill="#d4eea2" stroke="#d4eea2" stroke-width="1.51"/><path d="M544,762L636,766L652,691Z" fill="#7ec375" stroke="#7ec375" stroke-width="1.51"/><path d="M552,658L544,762L652,691Z" fill="#84c879" stroke="#84c879" stroke-width="1.51"/><path d="M541,952L538,1104L602,954Z" fill="#6faa67" stroke="#6faa67" stroke-width="1.51"/><path d="M490,463L590,524L636,408Z" fill="#a6da8b" stroke="#a6da8b" stroke-width="1.51"/><path d="M482,115L487,194L638,187Z" fill="#cfec9e" stroke="#cfec9e" stroke-width="1.51"/><path d="M496,-137L598,17L644,-90Z" fill="#dbf0b0" stroke="#dbf0b0" stroke-width="1.51"/><path d="M593,831L541,952L602,954Z" fill="#73b26a" stroke="#73b26a" stroke-width="1.51"/><path d="M544,762L593,831L636,766Z" fill="#7cbf73" stroke="#7cbf73" stroke-width="1.51"/><path d="M487,194L544,285L638,187Z" fill="#c7e99a" stroke="#c7e99a" stroke-width="1.51"/><path d="M616,345L490,463L636,408Z" fill="#aedd8f" stroke="#aedd8f" stroke-width="1.51"/><path d="M488,536L552,658L590,524Z" fill="#99d385" stroke="#99d385" stroke-width="1.51"/><path d="M502,879L541,952L593,831Z" fill="#77b56c" stroke="#77b56c" stroke-width="1.51"/><path d="M488,18L482,115L598,17Z" fill="#daf0a6" stroke="#daf0a6" stroke-width="1.51"/><path d="M496,-137L488,18L598,17Z" fill="#def2ad" stroke="#def2ad" stroke-width="1.51"/><path d="M500,1190L604,1222L613,1121Z" fill="#659960" stroke="#659960" stroke-width="1.51"/><path d="M538,1104L500,1190L613,1121Z" fill="#689e62" stroke="#689e62" stroke-width="1.51"/><path d="M544,285L490,463L616,345Z" fill="#b6e192" stroke="#b6e192" stroke-width="1.51"/><path d="M490,463L488,536L590,524Z" fill="#a4d98b" stroke="#a4d98b" stroke-width="1.51"/><path d="M544,762L502,879L593,831Z" fill="#7cbc72" stroke="#7cbc72" stroke-width="1.51"/><path d="M405,-27L488,18L496,-137Z" fill="#e4f4b1" stroke="#e4f4b1" stroke-width="1.51"/><path d="M415,979L538,1104L541,952Z" fill="#73ac69" stroke="#73ac69" stroke-width="1.51"/><path d="M411,431L490,463L544,285Z" fill="#b7e293" stroke="#b7e293" stroke-width="1.51"/><path d="M393,284L411,431L544,285Z" fill="#c2e697" stroke="#c2e697" stroke-width="1.51"/><path d="M444,728L502,879L544,762Z" fill="#83c276" stroke="#83c276" stroke-width="1.51"/><path d="M488,536L382,632L552,658Z" fill="#99d385" stroke="#99d385" stroke-width="1.51"/><path d="M382,632L444,728L552,658Z" fill="#92cf80" stroke="#92cf80" stroke-width="1.51"/><path d="M444,728L544,762L552,658Z" fill="#88c97a" stroke="#88c97a" stroke-width="1.51"/><path d="M415,979L374,1091L538,1104Z" fill="#74aa69" stroke="#74aa69" stroke-width="1.51"/><path d="M487,194L417,238L544,285Z" fill="#cbe99c" stroke="#cbe99c" stroke-width="1.51"/><path d="M417,238L393,284L544,285Z" fill="#cae99b" stroke="#cae99b" stroke-width="1.51"/><path d="M502,879L415,979L541,952Z" fill="#79b36c" stroke="#79b36c" stroke-width="1.51"/><path d="M374,1091L500,1190L538,1104Z" fill="#6fa265" stroke="#6fa265" stroke-width="1.51"/><path d="M388,85L482,115L488,18Z" fill="#ddf1a7" stroke="#ddf1a7" stroke-width="1.51"/><path d="M410,528L382,632L488,536Z" fill="#a3d88a" stroke="#a3d88a" stroke-width="1.51"/><path d="M410,528L488,536L490,463Z" fill="#a8db8d" stroke="#a8db8d" stroke-width="1.51"/><path d="M411,-124L405,-27L496,-137Z" fill="#e7f5b8" stroke="#e7f5b8" stroke-width="1.51"/><path d="M374,1091L378,1224L500,1190Z" fill="#719f65" stroke="#719f65" stroke-width="1.51"/><path d="M444,728L386,884L502,879Z" fill="#84bf74" stroke="#84bf74" stroke-width="1.51"/><path d="M386,884L415,979L502,879Z" fill="#7eb66f" stroke="#7eb66f" stroke-width="1.51"/><path d="M482,115L388,85L487,194Z" fill="#d8efa3" stroke="#d8efa3" stroke-width="1.51"/><path d="M388,85L417,238L487,194Z" fill="#d7efa1" stroke="#d7efa1" stroke-width="1.51"/><path d="M411,431L410,528L490,463Z" fill="#afde90" stroke="#afde90" stroke-width="1.51"/><path d="M405,-27L388,85L488,18Z" fill="#e3f4ab" stroke="#e3f4ab" stroke-width="1.51"/><path d="M374,1091L335,1123L378,1224Z" fill="#75a369" stroke="#75a369" stroke-width="1.51"/><path d="M388,85L307,206L417,238Z" fill="#daf0a4" stroke="#daf0a4" stroke-width="1.51"/><path d="M274,787L386,884L444,728Z" fill="#8cc579" stroke="#8cc579" stroke-width="1.51"/><path d="M382,632L274,787L444,728Z" fill="#93ce80" stroke="#93ce80" stroke-width="1.51"/><path d="M76,1177L-115,1229L184,1194Z" fill="#81a372" stroke="#81a372" stroke-width="1.51"/><path d="M321,626L274,787L382,632Z" fill="#9ad284" stroke="#9ad284" stroke-width="1.51"/><path d="M274,787L273,830L386,884Z" fill="#8cc279" stroke="#8cc279" stroke-width="1.51"/><path d="M298,18L309,62L388,85Z" fill="#e6f6ad" stroke="#e6f6ad" stroke-width="1.51"/><path d="M298,18L388,85L405,-27Z" fill="#e7f6ad" stroke="#e7f6ad" stroke-width="1.51"/><path d="M321,626L382,632L410,528Z" fill="#a3d78a" stroke="#a3d78a" stroke-width="1.51"/><path d="M276,569L321,626L410,528Z" fill="#a8da8d" stroke="#a8da8d" stroke-width="1.51"/><path d="M393,284L277,329L411,431Z" fill="#c6e89a" stroke="#c6e89a" stroke-width="1.51"/><path d="M277,329L283,465L411,431Z" fill="#bfe597" stroke="#bfe597" stroke-width="1.51"/><path d="M283,465L410,528L411,431Z" fill="#b4e092" stroke="#b4e092" stroke-width="1.51"/><path d="M264,-125L405,-27L411,-124Z" fill="#ecf8bb" stroke="#ecf8bb" stroke-width="1.51"/><path d="M386,884L319,1010L415,979Z" fill="#80b470" stroke="#80b470" stroke-width="1.51"/><path d="M319,1010L374,1091L415,979Z" fill="#7baf6d" stroke="#7baf6d" stroke-width="1.51"/><path d="M307,206L393,284L417,238Z" fill="#d2eda0" stroke="#d2eda0" stroke-width="1.51"/><path d="M335,1123L340,1226L378,1224Z" fill="#749e66" stroke="#749e66" stroke-width="1.51"/><path d="M264,-125L298,18L405,-27Z" fill="#ecf8b6" stroke="#ecf8b6" stroke-width="1.51"/><path d="M283,465L276,569L410,528Z" fill="#afdd91" stroke="#afdd91" stroke-width="1.51"/><path d="M309,62L307,206L388,85Z" fill="#e1f3a9" stroke="#e1f3a9" stroke-width="1.51"/><path d="M227,867L319,1010L386,884Z" fill="#85b973" stroke="#85b973" stroke-width="1.51"/><path d="M307,206L277,329L393,284Z" fill="#d1ec9f" stroke="#d1ec9f" stroke-width="1.51"/><path d="M273,830L227,867L386,884Z" fill="#8bc077" stroke="#8bc077" stroke-width="1.51"/><path d="M319,1010L335,1123L374,1091Z" fill="#7aab6c" stroke="#7aab6c" stroke-width="1.51"/><path d="M264,-125L222,-97L298,18Z" fill="#f1f9bb" stroke="#f1f9bb" stroke-width="1.51"/><path d="M222,-97L206,-46L298,18Z" fill="#f1fab9" stroke="#f1fab9" stroke-width="1.51"/><path d="M221,209L307,206L309,62Z" fill="#e1f3a8" stroke="#e1f3a8" stroke-width="1.51"/><path d="M227,867L187,972L319,1010Z" fill="#87b874" stroke="#87b874" stroke-width="1.51"/><path d="M187,687L274,787L321,626Z" fill="#9bd285" stroke="#9bd285" stroke-width="1.51"/><path d="M319,1010L171,1107L335,1123Z" fill="#7dac6e" stroke="#7dac6e" stroke-width="1.51"/><path d="M335,1123L184,1194L340,1226Z" fill="#78a069" stroke="#78a069" stroke-width="1.51"/><path d="M171,1107L184,1194L335,1123Z" fill="#7da66d" stroke="#7da66d" stroke-width="1.51"/><path d="M221,209L214,307L277,329Z" fill="#d5eea2" stroke="#d5eea2" stroke-width="1.51"/><path d="M221,209L277,329L307,206Z" fill="#d7efa3" stroke="#d7efa3" stroke-width="1.51"/><path d="M154,124L221,209L309,62Z" fill="#e6f5ac" stroke="#e6f5ac" stroke-width="1.51"/><path d="M187,972L171,1107L319,1010Z" fill="#83b172" stroke="#83b172" stroke-width="1.51"/><path d="M276,569L187,687L321,626Z" fill="#a5d78b" stroke="#a5d78b" stroke-width="1.51"/><path d="M277,329L153,460L283,465Z" fill="#c3e69a" stroke="#c3e69a" stroke-width="1.51"/><path d="M298,18L154,124L309,62Z" fill="#e9f7af" stroke="#e9f7af" stroke-width="1.51"/><path d="M214,307L153,460L277,329Z" fill="#cbea9f" stroke="#cbea9f" stroke-width="1.51"/><path d="M187,687L168,751L274,787Z" fill="#99cf84" stroke="#99cf84" stroke-width="1.51"/><path d="M174,555L276,569L283,465Z" fill="#b2df93" stroke="#b2df93" stroke-width="1.51"/><path d="M206,-46L154,124L298,18Z" fill="#eef9b2" stroke="#eef9b2" stroke-width="1.51"/><path d="M111,-155L222,-97L264,-125Z" fill="#f5fbc5" stroke="#f5fbc5" stroke-width="1.51"/><path d="M174,555L187,687L276,569Z" fill="#abda8f" stroke="#abda8f" stroke-width="1.51"/><path d="M153,460L174,555L283,465Z" fill="#bae297" stroke="#bae297" stroke-width="1.51"/><path d="M227,867L273,830L274,787Z" fill="#90c47b" stroke="#90c47b" stroke-width="1.51"/><path d="M168,751L227,867L274,787Z" fill="#94c87f" stroke="#94c87f" stroke-width="1.51"/><path d="M99,73L154,124L206,-46Z" fill="#f0fab3" stroke="#f0fab3" stroke-width="1.51"/><path d="M120,342L153,460L214,307Z" fill="#ceeba0" stroke="#ceeba0" stroke-width="1.51"/><path d="M-139,-126L-25,-110L111,-155Z" fill="#fcfdd2" stroke="#fcfdd2" stroke-width="1.51"/><path d="M90,767L73,876L168,751Z" fill="#9aca83" stroke="#9aca83" stroke-width="1.51"/><path d="M118,1081L171,1107L187,972Z" fill="#85b174" stroke="#85b174" stroke-width="1.51"/><path d="M118,169L120,342L214,307Z" fill="#daf0a6" stroke="#daf0a6" stroke-width="1.51"/><path d="M118,169L214,307L221,209Z" fill="#def2a8" stroke="#def2a8" stroke-width="1.51"/><path d="M154,124L118,169L221,209Z" fill="#e6f5ac" stroke="#e6f5ac" stroke-width="1.51"/><path d="M168,751L73,876L227,867Z" fill="#95c57e" stroke="#95c57e" stroke-width="1.51"/><path d="M98,939L187,972L227,867Z" fill="#8cbb78" stroke="#8cbb78" stroke-width="1.51"/><path d="M73,876L98,939L227,867Z" fill="#91bf7a" stroke="#91bf7a" stroke-width="1.51"/><path d="M174,555L85,633L187,687Z" fill="#aada90" stroke="#aada90" stroke-width="1.51"/><path d="M64,0L99,73L206,-46Z" fill="#f5fcb7" stroke="#f5fcb7" stroke-width="1.51"/><path d="M111,-155L206,-46L222,-97Z" fill="#f5fbc2" stroke="#f5fbc2" stroke-width="1.51"/><path d="M111,-155L64,0L206,-46Z" fill="#f7fcc0" stroke="#f7fcc0" stroke-width="1.51"/><path d="M153,460L103,469L174,555Z" fill="#bde399" stroke="#bde399" stroke-width="1.51"/><path d="M103,469L76,511L174,555Z" fill="#bce399" stroke="#bce399" stroke-width="1.51"/><path d="M171,1107L76,1177L184,1194Z" fill="#80a66f" stroke="#80a66f" stroke-width="1.51"/><path d="M98,939L118,1081L187,972Z" fill="#8ab676" stroke="#8ab676" stroke-width="1.51"/><path d="M90,767L168,751L187,687Z" fill="#9dd187" stroke="#9dd187" stroke-width="1.51"/><path d="M85,633L90,767L187,687Z" fill="#a3d58b" stroke="#a3d58b" stroke-width="1.51"/><path d="M118,169L5,216L120,342Z" fill="#e1f3ab" stroke="#e1f3ab" stroke-width="1.51"/><path d="M120,342L103,469L153,460Z" fill="#c8e89f" stroke="#c8e89f" stroke-width="1.51"/><path d="M118,1081L76,1177L171,1107Z" fill="#83ab72" stroke="#83ab72" stroke-width="1.51"/><path d="M76,511L85,633L174,555Z" fill="#b5df96" stroke="#b5df96" stroke-width="1.51"/><path d="M98,939L3,1009L118,1081Z" fill="#8bb679" stroke="#8bb679" stroke-width="1.51"/><path d="M99,73L118,169L154,124Z" fill="#ecf8b0" stroke="#ecf8b0" stroke-width="1.51"/><path d="M-53,1166L-115,1229L76,1177Z" fill="#83a478" stroke="#83a478" stroke-width="1.51"/><path d="M-4,655L-6,730L85,633Z" fill="#a9d893" stroke="#a9d893" stroke-width="1.51"/><path d="M10,844L73,876L90,767Z" fill="#99c784" stroke="#99c784" stroke-width="1.51"/><path d="M85,633L-6,730L90,767Z" fill="#a3d48d" stroke="#a3d48d" stroke-width="1.51"/><path d="M-25,-110L64,0L111,-155Z" fill="#fafdc8" stroke="#fafdc8" stroke-width="1.51"/><path d="M99,73L5,216L118,169Z" fill="#ebf7b1" stroke="#ebf7b1" stroke-width="1.51"/><path d="M-13,1130L76,1177L118,1081Z" fill="#84aa75" stroke="#84aa75" stroke-width="1.51"/><path d="M0,390L103,469L120,342Z" fill="#cdeaa2" stroke="#cdeaa2" stroke-width="1.51"/><path d="M5,216L0,390L120,342Z" fill="#d9f0aa" stroke="#d9f0aa" stroke-width="1.51"/><path d="M3,1009L-13,1130L118,1081Z" fill="#88b179" stroke="#88b179" stroke-width="1.51"/><path d="M76,511L-20,567L85,633Z" fill="#b5df99" stroke="#b5df99" stroke-width="1.51"/><path d="M-51,77L5,216L99,73Z" fill="#eef9b7" stroke="#eef9b7" stroke-width="1.51"/><path d="M-69,313L0,390L5,216Z" fill="#dbf0af" stroke="#dbf0af" stroke-width="1.51"/><path d="M0,390L76,511L103,469Z" fill="#c5e7a0" stroke="#c5e7a0" stroke-width="1.51"/><path d="M64,0L-51,77L99,73Z" fill="#f4fbba" stroke="#f4fbba" stroke-width="1.51"/><path d="M73,876L3,1009L98,939Z" fill="#90bc7c" stroke="#90bc7c" stroke-width="1.51"/><path d="M10,844L3,1009L73,876Z" fill="#92bf80" stroke="#92bf80" stroke-width="1.51"/><path d="M-20,567L-4,655L85,633Z" fill="#afdc98" stroke="#afdc98" stroke-width="1.51"/><path d="M-6,730L10,844L90,767Z" fill="#9dcd8a" stroke="#9dcd8a" stroke-width="1.51"/><path d="M-25,-110L-44,-17L64,0Z" fill="#fafdc6" stroke="#fafdc6" stroke-width="1.51"/><path d="M0,390L-20,567L76,511Z" fill="#c1e5a1" stroke="#c1e5a1" stroke-width="1.51"/><path d="M-13,1130L-53,1166L76,1177Z" fill="#84a878" stroke="#84a878" stroke-width="1.51"/><path d="M-44,-17L-51,77L64,0Z" fill="#f7fcc0" stroke="#f7fcc0" stroke-width="1.51"/><path d="M-168,515L-20,567L0,390Z" fill="#c2e5a7" stroke="#c2e5a7" stroke-width="1.51"/><path d="M-151,394L-168,515L0,390Z" fill="#cbe9ae" stroke="#cbe9ae" stroke-width="1.51"/><path d="M-177,1052L-13,1130L3,1009Z" fill="#8ab281" stroke="#8ab281" stroke-width="1.51"/><path d="M-126,910L-132,957L3,1009Z" fill="#91bb86" stroke="#91bb86" stroke-width="1.51"/><path d="M-51,77L-160,185L5,216Z" fill="#edf8bc" stroke="#edf8bc" stroke-width="1.51"/><path d="M-6,730L-147,754L10,844Z" fill="#9fce90" stroke="#9fce90" stroke-width="1.51"/><path d="M-147,754L-126,910L10,844Z" fill="#9ac78e" stroke="#9ac78e" stroke-width="1.51"/><path d="M-126,910L3,1009L10,844Z" fill="#93be84" stroke="#93be84" stroke-width="1.51"/><path d="M-115,80L-160,185L-51,77Z" fill="#f1fac2" stroke="#f1fac2" stroke-width="1.51"/><path d="M-132,957L-177,1052L3,1009Z" fill="#8eb786" stroke="#8eb786" stroke-width="1.51"/><path d="M-105,311L-69,313L5,216Z" fill="#def2b3" stroke="#def2b3" stroke-width="1.51"/><path d="M-160,185L-105,311L5,216Z" fill="#e4f4b9" stroke="#e4f4b9" stroke-width="1.51"/><path d="M-156,655L-6,730L-4,655Z" fill="#a8d898" stroke="#a8d898" stroke-width="1.51"/><path d="M-156,655L-147,754L-6,730Z" fill="#a5d599" stroke="#a5d599" stroke-width="1.51"/><path d="M-20,567L-156,655L-4,655Z" fill="#b0dc9c" stroke="#b0dc9c" stroke-width="1.51"/><path d="M-69,313L-151,394L0,390Z" fill="#d4edb0" stroke="#d4edb0" stroke-width="1.51"/><path d="M-177,1052L-53,1166L-13,1130Z" fill="#87ad80" stroke="#87ad80" stroke-width="1.51"/><path d="M-113,-29L-44,-17L-25,-110Z" fill="#fbfdcc" stroke="#fbfdcc" stroke-width="1.51"/><path d="M-168,515L-156,655L-20,567Z" fill="#b7dfa5" stroke="#b7dfa5" stroke-width="1.51"/><path d="M-115,80L-51,77L-44,-17Z" fill="#f6fcc3" stroke="#f6fcc3" stroke-width="1.51"/><path d="M-139,-126L-113,-29L-25,-110Z" fill="#fcfed3" stroke="#fcfed3" stroke-width="1.51"/><path d="M-105,311L-151,394L-69,313Z" fill="#d8efb4" stroke="#d8efb4" stroke-width="1.51"/><path d="M-113,-29L-115,80L-44,-17Z" fill="#f9fcc7" stroke="#f9fcc7" stroke-width="1.51"/><path d="M-177,1052L-115,1229L-53,1166Z" fill="#85a980" stroke="#85a980" stroke-width="1.51"/><path d="M-160,185L-151,394L-105,311Z" fill="#def1b9" stroke="#def1b9" stroke-width="1.51"/><path d="M-160,185L-115,80L-113,-29Z" fill="#f4fbc6" stroke="#f4fbc6" stroke-width="1.51"/><path d="M-139,-126L-160,185L-113,-29Z" fill="#fafdca" stroke="#fafdca" stroke-width="1.51"/><path d="M-177,1052L-132,957L-126,910Z" fill="#91ba8a" stroke="#91ba8a" stroke-width="1.51"/><path d="M-147,754L-177,1052L-126,910Z" fill="#95c08d" stroke="#95c08d" stroke-width="1.51"/><path d="M-156,655L-177,1052L-147,754Z" fill="#9cca95" stroke="#9cca95" stroke-width="1.51"/><path d="M-160,185L-168,515L-151,394Z" fill="#d5eeb7" stroke="#d5eeb7" stroke-width="1.51"/><path d="M-168,515L-177,1052L-156,655Z" fill="#a3d39c" stroke="#a3d39c" stroke-width="1.51"/></svg>